<?xml version="1.0" encoding="utf-8"?>
<!-- Generator: Adobe Illustrator 24.0.0, SVG Export Plug-In . SVG Version: 6.00 Build 0)  -->
<svg version="1.1" id="Шар_1" xmlns="http://www.w3.org/2000/svg" xmlns:xlink="http://www.w3.org/1999/xlink" x="0px" y="0px"
	 viewBox="0 0 351.69 381.56" style="enable-background:new 0 0 351.69 381.56;" xml:space="preserve">
<style type="text/css">
	.st0{fill:#FFFFFF;}
</style>
<g>
	<path class="st0" d="M189.71,87.63H86.04v189.51h103.67c52.25,0,94.75-42.51,94.75-94.76C284.46,130.14,241.96,87.63,189.71,87.63z
		 M189.71,270.06H93.13V94.72h96.58c48.34,0,87.67,39.33,87.67,87.67C277.38,230.73,238.05,270.06,189.71,270.06z"/>
	<path class="st0" d="M215.03,143.36l-14.44-14.57l-24.77,24.88l14.44,14.44h-0.16h-10.18h-0.03l-14.26-14.29l-0.16-0.16h-0.12
		l35.11-35.11l0.04,0.08l0.08-0.08l14.44,14.45V143.36z M215.03,162.63l-14.44-14.48l-5.52,5.52l14.55,14.44h-10.34l-14.44-14.44
		l15.88-15.88l14.32,14.5V162.63z M175.32,182.99l-14.45-14.44v-0.16l-35.4,35.41v-10.23L161,158.03l14.32,14.62V182.99z
		 M175.32,202.17l-14.44-14.44l-35.41,35.41v-10.23l35.4-35.41l14.45,14.32V202.17z M175.32,221.64l-14.45-14.44v-0.1l-24.19,24.19
		l14.71,14.7h-10.34l-14.75-14.75l34.57-34.38v-0.01l0.01,0.01l0.12-0.12v0.24l14.32,14.32V221.64z M175.32,240.92l-14.45-14.44
		v-0.01l-4.9,4.9h-0.14l14.63,14.63h-10.02l-14.58-14.75l15.02-15.02l14.45,14.34V240.92z M125.47,174.2l55.63-55.63h10.23
		l-65.87,65.87V174.2z M125.47,154.84l36.28-36.28h10.23l-46.5,46.5V154.84z M125.47,135.48l16.92-16.92h10.23l-27.15,27.15V135.48z
		 M125.47,118.56h7.79l-7.79,7.79V118.56z"/>
</g>
</svg>
